<svg width="368" height="808" viewBox="0 0 368 808" fill="none" xmlns="http://www.w3.org/2000/svg">
<g clip-path="url(#clip0_322_969)" filter="url(#filter0_d_322_969)">
<rect width="360" height="800" transform="translate(4)" fill="url(#paint0_linear_322_969)"/>
<path fill-rule="evenodd" clip-rule="evenodd" d="M89.9509 67.1775C139.949 90.7894 147.932 162.14 194.966 191.211C243.467 221.189 315.576 193.721 357.394 232.48C402.86 274.619 432.577 341.257 422.929 402.492C413.293 463.649 347.394 495.814 308.336 543.849C267.677 593.853 246.76 662.845 188.62 690.654C127.52 719.878 50.4996 725.982 -10.3723 696.287C-69.5053 667.439 -92.5919 597.355 -122.625 538.815C-146.504 492.272 -169.783 443.744 -166.729 391.522C-163.945 343.899 -114.852 311.839 -106.607 264.852C-93.9012 192.453 -158.414 100.925 -106.585 48.8015C-59.2319 1.17936 29.2243 38.499 89.9509 67.1775Z" fill="url(#paint1_linear_322_969)"/>
<path fill-rule="evenodd" clip-rule="evenodd" d="M200.231 145.624C264.768 143.943 335.697 103.717 386.524 143.522C439.07 184.673 427.272 263.573 435.425 329.815C445.526 411.88 497.304 509.954 438.819 568.403C380.334 626.852 276.902 595.823 200.231 564.866C146.322 543.099 138.86 473.374 98.8953 431.151C61.2737 391.403 -7.9114 382.633 -22.2471 329.815C-38.8241 268.738 -25.3526 193.336 23.3949 152.978C70.6364 113.867 138.921 147.221 200.231 145.624Z" fill="url(#paint2_linear_322_969)"/>
</g>
<defs>
<filter id="filter0_d_322_969" x="0" y="0" width="368" height="808" filterUnits="userSpaceOnUse" color-interpolation-filters="sRGB">
<feFlood flood-opacity="0" result="BackgroundImageFix"/>
<feColorMatrix in="SourceAlpha" type="matrix" values="0 0 0 0 0 0 0 0 0 0 0 0 0 0 0 0 0 0 127 0" result="hardAlpha"/>
<feOffset dy="4"/>
<feGaussianBlur stdDeviation="2"/>
<feComposite in2="hardAlpha" operator="out"/>
<feColorMatrix type="matrix" values="0 0 0 0 0 0 0 0 0 0 0 0 0 0 0 0 0 0 0.25 0"/>
<feBlend mode="normal" in2="BackgroundImageFix" result="effect1_dropShadow_322_969"/>
<feBlend mode="normal" in="SourceGraphic" in2="effect1_dropShadow_322_969" result="shape"/>
</filter>
<linearGradient id="paint0_linear_322_969" x1="180" y1="0" x2="180" y2="800" gradientUnits="userSpaceOnUse">
<stop offset="0.0091179" stop-color="#062259"/>
<stop offset="1" stop-color="#334189"/>
</linearGradient>
<linearGradient id="paint1_linear_322_969" x1="-92.5" y1="26" x2="128.874" y2="715.783" gradientUnits="userSpaceOnUse">
<stop stop-color="#2470E1" stop-opacity="0.97"/>
<stop offset="1" stop-color="#58D7FF" stop-opacity="0.5"/>
</linearGradient>
<linearGradient id="paint2_linear_322_969" x1="218.611" y1="126" x2="218.611" y2="601.344" gradientUnits="userSpaceOnUse">
<stop stop-color="#2955AB"/>
<stop offset="1" stop-color="#345DAD" stop-opacity="0"/>
</linearGradient>
<clipPath id="clip0_322_969">
<rect width="360" height="800" fill="white" transform="translate(4)"/>
</clipPath>
</defs>
</svg>
