<svg width="411" height="319" viewBox="0 0 411 319" fill="none" xmlns="http://www.w3.org/2000/svg">
<g filter="url(#filter0_d_197_46)">
<path fill-rule="evenodd" clip-rule="evenodd" d="M136.782 0.830223C238.296 10.2836 233.952 104.403 301.332 151.902C358.981 192.541 478.118 199.833 494.19 252.781C511.123 308.562 448.961 364.43 376.58 399.791C310.46 432.092 221.109 423.649 136.782 427.386C40.951 431.633 -78.0462 467.522 -140.385 422.7C-203.177 377.553 -116.378 311.773 -106.062 252.781C-97.7757 205.396 -126.258 156.795 -86.7123 115.766C-35.2875 62.4126 36.8425 -8.47653 136.782 0.830223Z" fill="url(#paint0_linear_197_46)" fill-opacity="0.41" shape-rendering="crispEdges"/>
</g>
<defs>
<filter id="filter0_d_197_46" x="-167" y="0" width="668" height="453" filterUnits="userSpaceOnUse" color-interpolation-filters="sRGB">
<feFlood flood-opacity="0" result="BackgroundImageFix"/>
<feColorMatrix in="SourceAlpha" type="matrix" values="0 0 0 0 0 0 0 0 0 0 0 0 0 0 0 0 0 0 127 0" result="hardAlpha"/>
<feOffset dy="4"/>
<feGaussianBlur stdDeviation="2"/>
<feComposite in2="hardAlpha" operator="out"/>
<feColorMatrix type="matrix" values="0 0 0 0 0 0 0 0 0 0 0 0 0 0 0 0 0 0 0.25 0"/>
<feBlend mode="normal" in2="BackgroundImageFix" result="effect1_dropShadow_197_46"/>
<feBlend mode="normal" in="SourceGraphic" in2="effect1_dropShadow_197_46" result="shape"/>
</filter>
<linearGradient id="paint0_linear_197_46" x1="167" y1="0" x2="167" y2="445" gradientUnits="userSpaceOnUse">
<stop stop-color="#C0AFE8" stop-opacity="0.57"/>
<stop offset="0.461458" stop-color="#D9F0FF"/>
<stop offset="1" stop-color="#C0AFE8"/>
</linearGradient>
</defs>
</svg>
