<svg width="411" height="731" viewBox="0 0 411 731" fill="none" xmlns="http://www.w3.org/2000/svg">
<g filter="url(#filter0_f_197_48)">
<path fill-rule="evenodd" clip-rule="evenodd" d="M55.0377 -167.239C158.729 -154.607 204.223 -53.3666 282.31 9.53865C353.549 66.9277 438.36 63.4108 467.558 145.5C496.68 227.373 490.338 312.151 475.351 397.073C457.587 497.727 464.893 589.434 378.5 655C242.898 636.795 104.335 793.781 -77 742.5C-188.873 715.561 -107.759 745.11 -198.5 706C-294.451 646.109 -218.494 593.716 -237.75 489.812C-255.177 395.78 -294.25 300.889 -266.107 209.001C-236.308 111.706 -234.739 128.382 -149.845 62.7286C-63.2385 -4.24921 -57.9517 -181.004 55.0377 -167.239Z" fill="url(#paint0_linear_197_48)"/>
</g>
<defs>
<filter id="filter0_f_197_48" x="-280" y="-172" width="772" height="928.845" filterUnits="userSpaceOnUse" color-interpolation-filters="sRGB">
<feFlood flood-opacity="0" result="BackgroundImageFix"/>
<feBlend mode="normal" in="SourceGraphic" in2="BackgroundImageFix" result="shape"/>
<feGaussianBlur stdDeviation="2" result="effect1_foregroundBlur_197_48"/>
</filter>
<linearGradient id="paint0_linear_197_48" x1="106" y1="-168" x2="106" y2="752.845" gradientUnits="userSpaceOnUse">
<stop stop-color="#90F3FF" stop-opacity="0.63"/>
<stop offset="0.392352" stop-color="#97E7FF" stop-opacity="0.605453"/>
<stop offset="1" stop-color="#A3D5FF" stop-opacity="0.49"/>
</linearGradient>
</defs>
</svg>
