<svg width="32" height="30" viewBox="0 0 32 30" fill="none" xmlns="http://www.w3.org/2000/svg">
<path d="M19.3161 24.4795C19.7191 24.8573 20.3519 24.8369 20.7296 24.4339C21.1073 24.031 21.0869 23.3982 20.684 23.0205L19.3161 24.4795ZM10.6667 15L9.98281 14.2705C9.78116 14.4595 9.66675 14.7236 9.66675 15C9.66675 15.2764 9.78116 15.5405 9.98281 15.7295L10.6667 15ZM20.684 6.97954C21.0869 6.60181 21.1073 5.96897 20.7296 5.56606C20.3519 5.16315 19.7191 5.14273 19.3161 5.52046L20.684 6.97954ZM20.684 23.0205L11.3507 14.2705L9.98281 15.7295L19.3161 24.4795L20.684 23.0205ZM11.3507 15.7295L20.684 6.97954L19.3161 5.52046L9.98281 14.2705L11.3507 15.7295Z" fill="#F2F2F2"/>
</svg>
