<svg width="32" height="30" viewBox="0 0 32 30" fill="none" xmlns="http://www.w3.org/2000/svg">
<path d="M19.3159 24.4795C19.7188 24.8573 20.3516 24.8369 20.7294 24.4339C21.1071 24.031 21.0867 23.3982 20.6838 23.0205L19.3159 24.4795ZM10.6665 15L9.98256 14.2705C9.78091 14.4595 9.6665 14.7236 9.6665 15C9.6665 15.2764 9.78091 15.5405 9.98256 15.7295L10.6665 15ZM20.6838 6.97954C21.0867 6.60181 21.1071 5.96897 20.7294 5.56606C20.3516 5.16315 19.7188 5.14273 19.3159 5.52046L20.6838 6.97954ZM20.6838 23.0205L11.3504 14.2705L9.98256 15.7295L19.3159 24.4795L20.6838 23.0205ZM11.3504 15.7295L20.6838 6.97954L19.3159 5.52046L9.98256 14.2705L11.3504 15.7295Z" fill="#F2F2F2"/>
</svg>
