<svg width="32" height="30" viewBox="0 0 32 30" fill="none" xmlns="http://www.w3.org/2000/svg">
<path d="M19.316 24.4795C19.7189 24.8573 20.3518 24.8369 20.7295 24.4339C21.1072 24.031 21.0868 23.3982 20.6839 23.0205L19.316 24.4795ZM10.6666 15L9.98268 14.2705C9.78103 14.4595 9.66663 14.7236 9.66663 15C9.66663 15.2764 9.78103 15.5405 9.98268 15.7295L10.6666 15ZM20.6839 6.97954C21.0868 6.60181 21.1072 5.96897 20.7295 5.56606C20.3518 5.16315 19.7189 5.14273 19.316 5.52046L20.6839 6.97954ZM20.6839 23.0205L11.3506 14.2705L9.98268 15.7295L19.316 24.4795L20.6839 23.0205ZM11.3506 15.7295L20.6839 6.97954L19.316 5.52046L9.98268 14.2705L11.3506 15.7295Z" fill="#F2F2F2"/>
</svg>
